# xmcd
#
# Track frame offsets:
# 150
# 14132
# 22946
# 37114
# 46760
# 59468
# 72009
# 87731
# 103499
# 111501
# 123124
# 134410
#
# Disc length: 1932 seconds
#
#
# Revision: 0
# Processed by: cddbd v1.5.2PL0 Copyright (c) Steve Scherf et al.
# Submitted via: FreeRIP 2.941 
#
DISCID=af078a0c
DTITLE=Madacy Entertainment Group, Ltd. - Kids Sing Bluegrass Gospel  Volme 2
DYEAR=0004
DGENRE=Gospel
TTITLE0=I am a man of constant sorrow
TTITLE1=I'll Fly Away
TTITLE2=At the crossroads
TTITLE3=Power in the blood
TTITLE4=What a friend we have in Jesus
TTITLE5=Softly and tenderly
TTITLE6=Don't go
TTITLE7=Just a closer walk
TTITLE8=Amazing Grace
TTITLE9=River of life
TTITLE10=When we all get to heaven
TTITLE11=When the roll is called up yonder
EXTD=
EXTT0=
EXTT1=
EXTT2=
EXTT3=
EXTT4=
EXTT5=
EXTT6=
EXTT7=
EXTT8=
EXTT9=
EXTT10=
EXTT11=
PLAYORDER=
